<mxfile modified="2023-04-04T02:37:25.562Z" host="app.diagrams.net" agent="Mozilla/5.0 (Windows NT 10.0; Win64; x64) AppleWebKit/537.36 (KHTML, like Gecko) Chrome/111.0.0.0 Safari/537.36 Edg/111.0.1661.54" etag="Fz5hCzAwT723ukm-Gm0L" version="21.1.4" type="github">
  <diagram id="l8hXMBHkgcEJcSW0mbfh" name="Page-1">
    <mxGraphModel dx="1101" dy="804" grid="0" gridSize="10" guides="1" tooltips="1" connect="1" arrows="1" fold="1" page="1" pageScale="1" pageWidth="1169" pageHeight="827" math="0" shadow="0">
      <root>
        <mxCell id="0" />
        <mxCell id="1" parent="0" />
        <mxCell id="ELIkt-kM2Y36wMLJKypr-8" style="edgeStyle=orthogonalEdgeStyle;rounded=0;orthogonalLoop=1;jettySize=auto;html=1;entryX=0.03;entryY=0.5;entryDx=0;entryDy=0;entryPerimeter=0;" edge="1" parent="1">
          <mxGeometry relative="1" as="geometry">
            <mxPoint x="476.5" y="260.5" as="sourcePoint" />
            <mxPoint x="691.5" y="188" as="targetPoint" />
            <Array as="points">
              <mxPoint x="570" y="261" />
              <mxPoint x="570" y="190" />
              <mxPoint x="660" y="190" />
              <mxPoint x="660" y="188" />
            </Array>
          </mxGeometry>
        </mxCell>
        <mxCell id="ELIkt-kM2Y36wMLJKypr-15" style="edgeStyle=orthogonalEdgeStyle;rounded=0;orthogonalLoop=1;jettySize=auto;html=1;dashed=1;" edge="1" parent="1" target="ELIkt-kM2Y36wMLJKypr-14">
          <mxGeometry relative="1" as="geometry">
            <mxPoint x="570" y="260" as="sourcePoint" />
            <Array as="points">
              <mxPoint x="620" y="260" />
              <mxPoint x="620" y="260" />
            </Array>
          </mxGeometry>
        </mxCell>
        <mxCell id="ELIkt-kM2Y36wMLJKypr-17" style="edgeStyle=orthogonalEdgeStyle;rounded=0;orthogonalLoop=1;jettySize=auto;html=1;entryX=0;entryY=0.5;entryDx=0;entryDy=0;entryPerimeter=0;dashed=1;" edge="1" parent="1" target="ELIkt-kM2Y36wMLJKypr-16">
          <mxGeometry relative="1" as="geometry">
            <mxPoint x="570" y="260" as="sourcePoint" />
            <Array as="points">
              <mxPoint x="570" y="260" />
              <mxPoint x="570" y="358" />
            </Array>
          </mxGeometry>
        </mxCell>
        <mxCell id="ELIkt-kM2Y36wMLJKypr-1" value="小湃私有云" style="verticalLabelPosition=bottom;sketch=0;aspect=fixed;html=1;verticalAlign=top;strokeColor=none;align=center;outlineConnect=0;shape=mxgraph.citrix.web_server;" vertex="1" parent="1">
          <mxGeometry x="400" y="214.5" width="76.5" height="90" as="geometry" />
        </mxCell>
        <mxCell id="ELIkt-kM2Y36wMLJKypr-6" style="edgeStyle=orthogonalEdgeStyle;rounded=0;orthogonalLoop=1;jettySize=auto;html=1;entryX=0.131;entryY=0.567;entryDx=0;entryDy=0;entryPerimeter=0;" edge="1" parent="1" source="ELIkt-kM2Y36wMLJKypr-2" target="ELIkt-kM2Y36wMLJKypr-1">
          <mxGeometry relative="1" as="geometry" />
        </mxCell>
        <mxCell id="ELIkt-kM2Y36wMLJKypr-10" value="" style="group;labelPosition=center;verticalLabelPosition=top;align=center;verticalAlign=bottom;" vertex="1" connectable="0" parent="1">
          <mxGeometry x="690" y="152" width="60" height="55" as="geometry" />
        </mxCell>
        <mxCell id="ELIkt-kM2Y36wMLJKypr-7" value="" style="verticalLabelPosition=bottom;html=1;verticalAlign=top;align=center;strokeColor=none;fillColor=#00BEF2;shape=mxgraph.azure.cloud_service;" vertex="1" parent="ELIkt-kM2Y36wMLJKypr-10">
          <mxGeometry y="15" width="50" height="40" as="geometry" />
        </mxCell>
        <mxCell id="ELIkt-kM2Y36wMLJKypr-9" value="微软海外云" style="verticalLabelPosition=bottom;html=1;verticalAlign=top;align=center;strokeColor=none;fillColor=#00BEF2;shape=mxgraph.azure.azure_instance;" vertex="1" parent="ELIkt-kM2Y36wMLJKypr-10">
          <mxGeometry x="30" width="30" height="30" as="geometry" />
        </mxCell>
        <mxCell id="ELIkt-kM2Y36wMLJKypr-13" value="" style="group" vertex="1" connectable="0" parent="1">
          <mxGeometry x="260" y="228" width="70" height="48" as="geometry" />
        </mxCell>
        <mxCell id="ELIkt-kM2Y36wMLJKypr-2" value="盒子用户" style="shape=mxgraph.cisco.misc.set_top_box;html=1;pointerEvents=1;dashed=0;fillColor=#036897;strokeColor=#ffffff;strokeWidth=2;verticalLabelPosition=bottom;verticalAlign=top;align=center;outlineConnect=0;" vertex="1" parent="ELIkt-kM2Y36wMLJKypr-13">
          <mxGeometry y="28" width="70" height="20" as="geometry" />
        </mxCell>
        <mxCell id="ELIkt-kM2Y36wMLJKypr-12" value="" style="shape=image;html=1;verticalAlign=top;verticalLabelPosition=bottom;labelBackgroundColor=#ffffff;imageAspect=0;aspect=fixed;image=https://cdn0.iconfinder.com/data/icons/user-pictures/100/female-128.png" vertex="1" parent="ELIkt-kM2Y36wMLJKypr-13">
          <mxGeometry x="21" width="28" height="28" as="geometry" />
        </mxCell>
        <mxCell id="ELIkt-kM2Y36wMLJKypr-14" value="百度文心" style="dashed=0;outlineConnect=0;html=1;align=center;labelPosition=center;verticalLabelPosition=bottom;verticalAlign=top;shape=mxgraph.webicons.baidu;fillColor=#738FE8;gradientColor=#1F2470" vertex="1" parent="1">
          <mxGeometry x="700" y="240" width="50" height="45" as="geometry" />
        </mxCell>
        <mxCell id="ELIkt-kM2Y36wMLJKypr-16" value="自建ChatGLM" style="sketch=0;points=[[0,0,0],[0.25,0,0],[0.5,0,0],[0.75,0,0],[1,0,0],[0,1,0],[0.25,1,0],[0.5,1,0],[0.75,1,0],[1,1,0],[0,0.25,0],[0,0.5,0],[0,0.75,0],[1,0.25,0],[1,0.5,0],[1,0.75,0]];outlineConnect=0;fontColor=#232F3E;gradientColor=#4AB29A;gradientDirection=north;fillColor=#116D5B;strokeColor=#ffffff;dashed=0;verticalLabelPosition=bottom;verticalAlign=top;align=center;html=1;fontSize=12;fontStyle=0;aspect=fixed;shape=mxgraph.aws4.resourceIcon;resIcon=mxgraph.aws4.augmented_ai;" vertex="1" parent="1">
          <mxGeometry x="702" y="336" width="44" height="44" as="geometry" />
        </mxCell>
      </root>
    </mxGraphModel>
  </diagram>
</mxfile>
